<svg width="231" height="239" viewBox="0 0 231 239" fill="none" xmlns="http://www.w3.org/2000/svg">
<g clip-path="url(#clip0_251_49)">
<path d="M150.188 17.147C147.579 15.1897 141.134 16.901 138.129 17.4006C132.525 18.3734 127.075 20.0198 121.882 22.1813C117.23 24.1177 112.902 26.4888 108.581 28.9733C103.155 32.0997 99.4191 31.6213 93.2196 31.4173C82.1216 31.0765 70.4607 32.3297 59.4883 33.918C48.9561 35.4397 38.6355 38.5049 29.0627 42.813C21.1104 46.4077 9.52116 51.6068 4.99477 58.891C-4.9677 74.848 31.5221 87.9696 42.4535 93.1454C45.9309 94.7803 49.809 95.7432 53.2569 97.4939C56.8966 99.3461 62.3809 103.927 62.2093 108.117C61.7605 118.858 61.8626 129.525 62.8204 140.251C63.015 142.669 61.3454 144.335 59.3217 145.682C57.0128 147.2 54.8121 148.673 52.5843 150.3C48.3771 153.385 44.2093 156.505 40.1595 159.732C33.2599 165.271 25.1503 170.434 20.442 177.767C2.19376 206.42 87.8003 205.288 102.889 204.344C107.353 204.053 112.143 203.095 116.554 203.72C120.966 204.344 125.186 206.576 129.347 207.901C137.974 210.681 147.13 213.048 156.378 213.433C158.83 213.539 165.064 214.273 167.186 212.729C169.06 211.354 168.135 208.527 168.007 206.56C167.889 204.745 168.004 203.104 168.156 201.46C168.323 199.474 168.453 197.491 168.089 195.311C167.422 191.328 167.326 187.004 167.881 183.017C167.324 188.676 167.755 194.155 169.039 199.656C169.644 202.123 171.299 203.649 172.113 205.913C172.792 207.806 171.59 210.391 174.18 210.906C179.885 212.054 180.973 203.74 180.154 200.831C179.965 200.198 179.81 199.524 179.62 198.89C179.901 199.784 180.287 200.594 181.047 201.457C181.089 201.53 183.883 204.045 183.843 204.009C189.763 205.599 185.126 192.986 182.924 187.052C183.903 189.571 184.892 192.242 185.829 194.688C187.347 198.653 188.815 200.723 193.16 197.477C200.298 192.188 205.1 184.012 209.331 176.747C225.895 148.395 227 114.174 217.298 84.0752C212.282 68.4859 203.934 54.0633 192.559 41.5091C189.647 38.3181 186.556 35.2147 183.292 32.3124C181.288 30.5437 177.908 26.4334 174.672 26.7961C173.128 26.9726 171.911 28.1915 170.95 29.9255C171.099 25.9652 169.99 22.5808 166.084 21.2017C163.089 20.1433 161.847 21.5537 161.316 23.6395C161.169 21.3699 160.406 19.3304 158.168 18.5265C154.752 17.2676 156.204 20.2119 155.648 21.9194C154.913 24.2844 153.583 25.4727 153.354 28.2225C153.349 28.1468 153.345 28.0712 153.34 27.9955C153.563 24.6003 153.38 19.5221 150.112 17.1139L150.188 17.147ZM175.569 185.024C176.353 186.264 176.899 187.824 177.335 189.391C176.862 187.826 176.321 186.342 175.569 185.024ZM160.884 30.6569C160.418 36.0053 159.988 41.3513 159.632 46.6925C159.509 41.3825 160.376 35.9321 160.808 30.6239C160.825 30.3189 160.879 30.0115 160.931 29.6663C160.953 30.0067 160.902 30.3519 160.884 30.6569Z" fill="#181313"/>
<path d="M155.068 23.2487C154.479 32.4036 155.449 41.6089 154.385 51.4405C151.943 49.7763 152.115 47.8658 151.97 46.2039C151.398 40.2773 151.567 34.3406 151.623 28.3732C151.662 25.5597 151.591 22.7535 151.593 19.9424C151.937 16.1214 152.241 12.2651 152.585 8.44411C155.595 9.72951 153.938 12.1546 154.213 14.1119C154.487 17.1709 154.797 20.2275 155.07 23.2866L155.068 23.2487Z" fill="#DFD7CF"/>
<path d="M163.197 20.6681C162.554 28.9908 161.984 37.3088 161.267 45.6363C161.029 48.2349 161.283 50.9913 159.331 53.4356C157.105 52.251 157.651 50.3922 157.808 48.8246C158.444 40.9581 159.193 33.1223 159.905 25.2888C160.035 23.8749 160.055 22.4681 160.111 21.059C160.63 18.7841 161.148 16.5091 161.669 14.272C161.996 13.605 161.797 12.8203 162.198 12.1484C162.107 11.8884 162.163 11.6189 162.294 11.3445C162.717 11.0131 163.12 10.9488 163.585 11.2604C163.887 11.9244 163.966 12.5651 163.602 13.2345C163.565 13.8067 163.494 14.4191 163.457 14.9913C162.892 15.9778 163.558 17.1119 163.03 18.096C163.086 18.966 163.18 19.8335 163.274 20.7011L163.197 20.6681Z" fill="#E1D9D0"/>
<path d="M173.371 27.2987C172.069 32.3217 170.8 37.3044 169.461 42.3298C168.868 44.6095 168.313 46.8868 166.889 48.9168C164.942 49.1576 165.028 48.2024 165.505 46.9938C167.011 39.9823 168.552 32.9305 170.059 25.919C171.391 21.35 172.721 16.7431 174.09 12.1716C174.211 11.7459 174.631 11.3767 174.599 10.8849C174.508 10.625 174.57 10.431 174.742 10.2299C176.726 9.98667 176.424 11.032 176.05 12.1199C175.158 17.1921 174.303 22.2619 173.413 27.3719L173.371 27.2987Z" fill="#E3DAD2"/>
<path d="M186.582 201.704C185.205 196.476 182.701 191.587 181.687 186.259C181.33 185.332 180.632 184.276 182.621 184.109C184.995 189.272 187.332 194.438 189.705 199.601C191.626 204.072 193.584 208.541 195.434 213.055C196.091 214.607 196.858 216.153 196.384 219.109C191.667 213.224 189.824 207.115 186.619 201.701L186.582 201.704Z" fill="#E2D6CF"/>
<path d="M177.883 189.279C179.386 193.588 180.889 197.896 182.431 202.24C183.507 206.804 184.658 211.401 185.659 215.971C185.977 217.431 186.447 218.958 185.419 220.81C183.402 219.992 183.188 218.411 182.655 217.04C181.334 213.821 181.36 210.249 179.712 207.127C179.451 203.118 177.287 199.46 177.318 195.394C177.222 193.349 175.041 191.136 177.92 189.277L177.883 189.279Z" fill="#E3D9D1"/>
<path d="M168.122 184.445C168.469 188.069 168.851 191.653 169.198 195.277C170.655 200.006 169.762 205.078 171.329 209.801C171.553 210.963 171.777 212.126 171.964 213.292C172.956 216.57 172.769 219.963 173.207 223.277C173.298 224.107 173.158 224.8 171.976 224.839C171.496 223.161 170.905 221.49 171.161 219.726C169.938 216.88 170.88 213.704 169.586 210.902C168.838 207.95 168.604 204.926 168.444 201.897C167.443 197.328 166.958 192.726 167.174 188.078C166.839 186.922 166.726 185.752 167.058 184.59C167.235 184.465 167.375 184.342 167.552 184.216C167.744 184.318 167.935 184.419 168.125 184.483L168.122 184.445Z" fill="#E6D7D1"/>
<path d="M171.976 224.839C173.244 222.705 172.14 220.536 172.149 218.408C172.149 216.698 172.038 214.996 171.964 213.292C173.642 218.007 173.151 222.977 174.639 228.198C171.966 227.536 172.059 226.125 171.976 224.839Z" fill="#BCA2A3"/>
<path d="M171.329 209.801C169.138 205.157 169.553 200.154 169.198 195.277C170.603 198.072 169.998 201.302 171.11 204.155C171.196 206.049 171.243 207.907 171.329 209.801Z" fill="#CFC6C0"/>
<path d="M167.171 188.04C167.951 192.623 168.362 197.231 168.442 201.86C168.208 201.685 167.94 201.55 167.674 201.454C167.679 196.971 165.873 192.569 167.171 188.04Z" fill="#CFC6C0"/>
<path d="M154.213 14.1119C153.207 12.3161 154.245 10.0454 152.585 8.44415C152.282 7.21033 152.317 6.03054 154.048 4.74025C154.673 8.08026 154.646 11.0829 154.213 14.1119Z" fill="#B39596"/>
<path d="M163.563 13.1991C163.41 12.5632 163.26 11.9652 163.108 11.3294C162.79 11.0082 162.51 10.6846 162.193 10.3634C162.129 8.81017 162.438 7.30857 163.518 5.11109C164.465 8.27818 164.659 10.6966 163.563 13.1991Z" fill="#A6888A"/>
<path d="M175.565 6.3777C175.931 5.17629 175.725 3.70832 177.461 2.49368C178.093 4.8076 177.764 6.57639 176.878 8.34338C175.678 8.11766 176.229 6.90423 175.565 6.3777Z" fill="#A48688"/>
<path d="M169.584 210.864C171.539 213.585 170.927 216.702 171.158 219.688C169.717 216.895 169.631 213.862 169.584 210.864Z" fill="#CFC6C0"/>
<path d="M175.565 6.37769C176.443 6.77634 176.573 7.64152 176.878 8.34338C176.888 9.63424 176.862 10.9275 176.008 12.0467C175.666 11.3472 175.649 10.5126 174.7 10.1566C174.387 8.77151 175.275 7.61213 175.563 6.33988L175.565 6.37769Z" fill="#C2ABAB"/>
<path d="M162.956 18.1007C162.553 17.0254 162.407 15.9333 163.384 14.9961C163.713 16.0762 163.632 17.1071 162.956 18.1007Z" fill="#C0A9A7"/>
<path d="M162.159 12.113C162.471 12.9283 162.368 13.6188 161.63 14.2366C161.357 13.4567 161.608 12.7566 162.159 12.113Z" fill="#C0A9A7"/>
<path d="M162.195 10.4012C162.724 10.5567 163.039 10.8401 163.11 11.3673C162.81 11.3108 162.513 11.2922 162.22 11.3493C162.2 11.0467 162.181 10.7441 162.158 10.4036L162.195 10.4012Z" fill="#C0A9A7"/>
<path d="M174.56 10.8495C174.742 11.3694 174.548 11.7999 174.051 12.1361C173.869 11.6162 174.063 11.1857 174.56 10.8495Z" fill="#C2ABAB"/>
<path d="M79.9442 42.576C77.2866 48.4089 74.4568 53.8732 72.3057 59.5212C69.0729 67.8987 67.0796 76.5373 65.9494 85.3476C65.404 89.4855 64.9023 89.7461 60.7094 87.93C45.3539 81.3709 29.932 74.9302 15.3781 67.0274C12.3827 65.3992 12.3359 64.6805 15.1268 62.5995C19.7938 59.1807 25.0756 56.6715 30.4043 54.3112C43.5475 48.5171 57.2812 44.3939 71.7111 42.4285C74.2439 42.0736 76.8283 41.3734 79.9442 42.576Z" fill="#A57664"/>
<path d="M83.3581 196.803C65.5542 197.013 47.4032 194.738 30.1026 188.458C23.0471 185.917 23.143 185.683 28.6607 181.107C40.3281 171.42 53.2424 163.248 65.7115 154.497C66.1369 154.203 66.5623 153.91 66.9902 153.654C70.3786 151.648 70.8286 151.732 72.0512 155.148C74.9957 163.389 78.7689 171.272 83.2282 178.882C85.6853 183.053 89.067 186.631 91.6668 190.716C94.1829 194.655 93.556 195.835 88.3648 196.325C86.9656 196.454 85.6033 196.581 83.3557 196.765L83.3581 196.803Z" fill="#A57664"/>
<path d="M93.5696 80.016C92.1981 65.215 104.389 52.1897 121.069 50.6475C137.823 49.1005 152.293 59.7057 153.593 74.5493C154.906 89.0124 142.415 101.981 126.101 103.462C112.365 104.698 94.0509 95.3689 93.5696 80.016Z" fill="#E8CF4F"/>
<path d="M126.383 135.655C143.142 134.184 157.657 144.9 158.878 159.673C160.065 173.916 147.788 186.757 131.711 188.45C118.282 189.856 99.579 180.818 98.6575 164.962C97.8049 150.165 109.737 137.157 126.385 135.693L126.383 135.655Z" fill="#E8CF4F"/>
<path d="M150.893 117.839C150.598 117.858 150.33 117.724 150.131 117.509C149.713 117.346 149.292 117.145 148.906 116.905C146.317 116.959 145.393 119.261 143.494 120.258C140.45 121.862 139.4 121.664 138.913 118.733C138.507 116.48 137.449 113.321 139.443 112.089C141.868 110.64 144.337 113.29 146.705 114.389C148.724 114.675 151.139 114.214 152.039 116.663C152.28 117.521 152.057 118.067 150.93 117.836L150.893 117.839Z" fill="#BD8874"/>
<path d="M152.037 116.625C150.246 115.868 148.493 115.108 146.703 114.351C147.731 114.208 148.847 114.288 149.747 113.887C151.766 113.034 154.653 112.428 155.002 110.392C155.348 108.318 152.326 107.983 150.671 107.027C150.093 106.685 149.552 106.341 149.562 105.352C153.022 105.013 155.456 106.564 157.382 108.832C158.786 110.487 157.306 111.647 156.013 112.833C154.648 114.062 151.756 114.022 152.037 116.625Z" fill="#9E7463"/>
<path d="M150.893 117.839C151.275 117.434 151.695 117.065 152.076 116.66C153.802 117.004 154.985 118.104 156.235 119.086C159.592 121.717 159.425 122.563 155.21 124.965C154.123 125.34 152.94 125.948 152.896 124.128C155.35 122.753 155.603 121.331 153.655 119.862C152.76 119.199 151.825 118.5 150.928 117.799L150.893 117.839Z" fill="#9E7463"/>
<path d="M177.883 189.279C176.231 191.21 177.78 193.388 177.281 195.396C175.717 192.421 175.761 189.114 175.333 185.951C174.745 184.887 175.323 184.66 176.363 184.706C177.052 186.181 177.996 187.601 177.886 189.317L177.883 189.279Z" fill="#CEC6C1"/>
<path d="M166.993 183.607C166.642 182.186 166.4 180.759 167.145 178.545C168.813 180.829 168.852 182.574 168.122 184.445C167.987 184.644 167.842 184.691 167.648 184.552C167.512 184.181 167.308 183.89 166.993 183.607Z" fill="#B6AFAB"/>
<path d="M182.587 184.149C181.807 184.693 181.975 185.556 181.653 186.299C180.214 184.683 180.162 182.749 179.876 180.071C181.745 181.469 182.417 182.678 182.55 184.151L182.587 184.149Z" fill="#AAA49F"/>
<path d="M176.36 184.668C176.016 185.071 175.674 185.511 175.33 185.913C174.292 184.765 174.167 183.406 174.287 181.84C175.984 182.3 176.313 183.38 176.358 184.63L176.36 184.668Z" fill="#B2ABA8"/>
<path d="M152.896 124.128C153.43 124.929 154.389 124.866 155.21 124.965C154.617 125.535 153.862 125.888 153.014 125.944C152.35 125.987 151.544 126.115 151.349 125.406C151.096 124.359 152.05 124.221 152.893 124.09L152.896 124.128Z" fill="#71554D"/>
<path d="M165.468 46.9962C165.846 47.6932 165.689 48.6911 166.852 48.9192C166.803 49.872 166.171 50.407 165.234 50.2401C164.558 50.0943 164.467 49.2645 164.651 48.6827C164.836 48.1009 165.173 47.5852 165.468 46.9962Z" fill="#A09996"/>
<path d="M166.993 183.607C167.2 183.935 167.404 184.226 167.648 184.552C167.463 184.564 167.279 184.576 167.055 184.553C167.035 184.25 167.016 183.947 166.993 183.607Z" fill="#CFC6C0"/>
<path d="M148.906 116.905C149.46 116.869 149.843 117.072 150.131 117.509C149.578 117.545 149.157 117.344 148.906 116.905Z" fill="#9E7463"/>
<path d="M120.976 58.3266C128.341 57.657 134.43 59.0078 139.681 62.8442C149.208 69.7829 149.847 81.8587 141.145 89.8706C132.128 98.1689 116.22 98.4833 107.071 90.5324C101.339 85.5498 99.4762 79.1375 101.371 72.4046C103.414 65.0923 109.547 60.8563 117.531 58.8929C118.881 58.577 120.28 58.4479 121.016 58.362L120.976 58.3266Z" fill="#181313"/>
<path d="M126.699 143.346C133.358 142.646 138.871 143.692 143.844 146.673C155.907 153.865 156.427 168.683 144.723 176.663C136.958 181.992 128.336 182.706 119.49 179.408C110.342 176.015 105.484 167.974 106.703 158.816C107.575 152.302 115.421 145.372 123.763 143.765C124.97 143.534 126.185 143.417 126.662 143.348L126.699 143.346Z" fill="#181313"/>
</g>
<defs>
<clipPath id="clip0_251_49">
<rect width="225.044" height="216.206" fill="white" transform="translate(14.6259 238.619) rotate(-93.7263)"/>
</clipPath>
</defs>
</svg>
